# xmcd CD database file
#
# Track frame offsets:
#	150
#	15214
#	30503
#	45067
#	61728
#	75342
#	85598
#	99551
#	113064
#	130300
#	148466
#	166522
#	187606
#	206404
#	219095
#	228151
#	245342
#	262438
#	277524
#	288907
#
# Disc length: 4017 seconds
#
# Revision: 0
# Processed by: cddbd v1.5.2PL0 Copyright (c) Steve Scherf et al.
# Submitted via: CDex 1.51
#
DISCID=ec0faf14
DTITLE=Frank Sinatra - The Sound Track Volume 3 1946-1961
DYEAR=1900
DGENRE=Jazz
TTITLE0=Sweet Lorraine
TTITLE1=I've Got A Crush On You
TTITLE2=September Song
TTITLE3=It Never Entered My Mind
TTITLE4=I'm A Fool To Want You
TTITLE5=I've Got The World On A String
TTITLE6=From Here To Eternity
TTITLE7=Memories Of You
TTITLE8=I've Got You Under My Skin
TTITLE9=Close To You
TTITLE10=Lonesome Road
TTITLE11=Only The Lonely
TTITLE12=One For My Baby
TTITLE13=The Song Is You
TTITLE14=Saturday Night Is The Loneliest Night Of The Week
TTITLE15=Here's That Rainy Day
TTITLE16=None But The Lonely Heart
TTITLE17=I Don't Stand A Ghost Of A Chance With You
TTITLE18=Dancing In The Dark
TTITLE19=Nice And Easy
EXTD=
EXTT0=
EXTT1=
EXTT2=
EXTT3=
EXTT4=
EXTT5=
EXTT6=
EXTT7=
EXTT8=
EXTT9=
EXTT10=
EXTT11=
EXTT12=
EXTT13=
EXTT14=
EXTT15=
EXTT16=
EXTT17=
EXTT18=
EXTT19=
PLAYORDER=
